M48
; DRILL file {KiCad 7.0.7} date Sat Dec 16 14:30:28 2023
; FORMAT={3:3/ absolute / metric / suppress leading zeros}
; #@! TF.CreationDate,2023-12-16T14:30:28-05:00
; #@! TF.GenerationSoftware,Kicad,Pcbnew,7.0.7
; #@! TF.FileFunction,Plated,1,2,PTH
FMAT,2
METRIC,TZ
; #@! TA.AperFunction,Plated,PTH,ViaDrill
T1C0.305
; #@! TA.AperFunction,Plated,PTH,ViaDrill
T2C0.400
; #@! TA.AperFunction,Plated,PTH,ComponentDrill
T3C0.970
; #@! TA.AperFunction,Plated,PTH,ComponentDrill
T4C1.000
; #@! TA.AperFunction,Plated,PTH,ComponentDrill
T5C2.100
%
G90
G05
T1
X113610Y-140218
X113610Y-141618
X114300Y-139508
X114300Y-140918
X114300Y-142318
X115000Y-140218
X115000Y-141618
X115720Y-139508
X115720Y-140918
X115720Y-142318
X116400Y-140218
X116400Y-141618
T2
X79590Y-136288
X79590Y-137538
X79590Y-138938
X79590Y-140188
X82070Y-131108
X83170Y-120728
X83800Y-122508
X83800Y-124928
X83890Y-127428
X85390Y-142808
X85400Y-145808
X85430Y-140438
X85810Y-135538
X88100Y-137188
X88680Y-121818
X89210Y-127678
X89700Y-139328
X91520Y-120148
X91950Y-127298
X92320Y-139428
X92740Y-143378
X93980Y-115638
X94760Y-142058
X95260Y-117128
X95650Y-119588
X95660Y-143378
X96020Y-141338
X96480Y-131558
X96620Y-128018
X96630Y-123208
X98990Y-147948
X99480Y-128218
X99880Y-123568
X99930Y-126278
X100270Y-117918
X100610Y-147978
X102390Y-119138
X102830Y-133378
X102850Y-135578
X103130Y-120988
X103470Y-128418
X103480Y-126558
X104290Y-114338
X104810Y-97848
X105770Y-108138
X105850Y-114378
X106030Y-97888
X106430Y-102458
X107121Y-113683
X107280Y-97888
X108570Y-97888
X109190Y-126088
X109800Y-97888
X109820Y-112558
X109890Y-102578
X110260Y-122548
X110440Y-126088
X110930Y-108448
X110950Y-119245
X111130Y-111118
X111730Y-126088
X112040Y-140908
X112070Y-139528
X112090Y-142348
X112310Y-119265
X112460Y-105578
X112960Y-126088
X113590Y-137938
X113610Y-143778
X113630Y-119265
X114420Y-128608
X114460Y-126848
X114790Y-117118
X114920Y-119275
X115000Y-137958
X115020Y-143798
X115150Y-102658
X115680Y-111648
X115690Y-109405
X116290Y-117118
X116370Y-119275
X116380Y-137938
X116400Y-143778
X117190Y-104368
X117620Y-122588
X117710Y-119305
X117880Y-139488
X117880Y-142298
X117910Y-140908
X118930Y-119315
X119510Y-106548
X119590Y-120338
X119820Y-108918
X124164Y-145882
X124180Y-148848
X125007Y-123668
X125119Y-143558
X126510Y-125128
X126760Y-142098
X127460Y-148958
X127490Y-147558
X127770Y-117425
X127780Y-118605
X127830Y-131048
X128190Y-122198
X129320Y-128038
X131620Y-148418
X131630Y-119818
X131710Y-118138
X131770Y-136318
X131780Y-134968
X132260Y-131028
X132800Y-127968
X132840Y-120658
X133430Y-148408
X135290Y-118828
X136100Y-142698
X136830Y-148378
X137310Y-141418
X138090Y-144298
X138410Y-140238
X138790Y-148378
X139300Y-143018
X139380Y-109138
X140130Y-123348
X140400Y-141838
X140600Y-109178
X140750Y-148408
X140760Y-118678
X141320Y-131208
X141850Y-109178
X143120Y-126245
X143130Y-123338
X143140Y-109178
X143250Y-148468
X144370Y-109178
X144730Y-131208
X145620Y-125148
X145650Y-118268
X145650Y-123078
X145710Y-116628
X145740Y-109158
X147120Y-147658
X148290Y-128218
X149160Y-122308
X149490Y-131238
X149520Y-135208
X150260Y-129678
X152330Y-129548
X152330Y-130908
X153820Y-129518
X153850Y-130938
X154060Y-116618
X154060Y-120038
X155300Y-141468
X156180Y-112518
X156240Y-124568
T3
X132960Y-132977
X134230Y-135517
X135500Y-132977
X136770Y-135517
X138040Y-132977
X139310Y-135517
X140580Y-132977
X141850Y-135517
X143120Y-132977
X144390Y-135517
T4
X80655Y-115968
X80655Y-118507
X80655Y-121048
X80655Y-123588
X80655Y-126128
X80655Y-128668
X89660Y-145618
X92160Y-145618
X94660Y-145618
X95110Y-121895
X95110Y-124435
X95110Y-126975
X95110Y-129515
X97160Y-145618
X155430Y-132963
X155430Y-135503
T5
X94250Y-75148
X103680Y-75098
T0
M30
